P1
20 20
00000000000000000000
00011110000001111000
00011110000001111000
00011110000001111000
00011110000001111000
00011110000001111000
00011110000001111000
00011111111111111000
00111111111111111100
01111111111111111110
01111111111111111110
00111111111111111100
00011111111111111000
00001111111111110000
00000111111111100000
00000000000000000000
00000000000000000000
00000000000000000000
00000000000000000000
00000000000000000000